<svg fill="none" height="357" viewBox="0 0 452 357" width="452" xmlns="http://www.w3.org/2000/svg"><path d="m347.683 206.317c6.607-23.681 11.892-47.73 15.856-72 4.038-9.193 8.589-18.166 13.581-26.844 6.166-10.6641 13.434-20.5191 20.187-30.8154 6.02-9.1932 11.452-19.3424 12.113-30.4477.514-8.6783-1.395-18.0185-7.194-24.7846-6.387-7.5016-16.224-10.4434-25.84-9.5609-10.424.8825-19.894 6.3984-27.969 12.7968-8.736 6.9868-16.884 14.9297-24.592 22.9461-14.902 15.518-28.116 32.654-39.494 50.8931-8.369-3.2359-16.444-7.1338-24.519-10.9582-11.745-5.5894-23.637-10.5169-36.264-13.8264-22.536-5.8836-47.936-8.1635-70.032.5148-19.967 7.8693-36.778 25.8144-37.071 48.1724-.147 8.825 2.422 16.547 6.68 23.313-9.103 5.001-16.811 12.135-21.582 21.549-4.8454 9.561-5.7997 21.255-1.8356 31.257 1.4686 3.677 3.5236 6.986 6.0196 9.928-7.4144 6.766-14.0946 15.371-17.1778 25.006-2.9364 9.119-1.248 18.312 3.597 26.476 1.3948 2.28 3.0098 4.412 4.7716 6.472-8.1484 7.134-10.7911 18.827-8.3686 29.271 2.7895 12.282 11.7458 21.843 21.3618 29.418 7.415 5.81 15.343 11.031 23.565 15.665 4.11 2.574 8.442 5.001 12.773 7.207 4.624 2.28 9.469 4.413 14.388 5.884 3.377 1.029 6.827 1.912 10.277 2.353 2.349.294 4.698.441 7.047.368 1.175 0 2.349-.074 3.451-.221 3.23-.294 6.46-1.176 9.616-2.206 2.202-.735 4.331-1.692 6.387-2.868 1.615-.883 3.23-1.839 4.698-2.869 9.249 2.207 18.646 3.457 28.189 3.31 20.334-.368 39.421-8.605 54.837-21.769 16.957-14.415 28.923-33.61 38.025-53.762 10.204-22.357 17.839-46.113 24.519-69.868z" fill="#ef9e81"/><g fill="#c4674e"><path d="m98.0768 268.772c14.0532 9.06 28.6212 17.383 43.5572 24.822 7.357 3.683 14.862 7.218 22.514 10.312 7.578 3.093 15.377 5.745 23.471 7.365 7.505 1.474 15.671 2.21 23.25.737 4.709-.884 9.785-2.062 13.832-4.714 2.428-1.547 4.488-3.535 6.401-5.671 1.692-1.916 3.458-3.978 4.709-6.188 1.987-3.609 3.09-7.66 3.532-11.711 1.25-10.238-2.06-20.845-10.301-27.326-1.177-.958-2.502-1.842-3.826-2.578-1.03-.59-1.913.957-.956 1.62 4.782 2.799 8.608 6.776 10.962 11.859 1.987 4.272 2.723 9.133 2.502 13.847-.221 4.051-1.03 8.102-2.722 11.785-.736 1.621-1.693 3.094-2.796 4.493-1.987 2.578-4.194 5.009-6.696 7.071-3.531 2.873-7.872 4.125-12.213 5.156-7.211 1.768-14.789 1.547-22.073.442-15.745-2.431-30.534-9.207-44.734-16.131-14.568-7.071-28.768-14.952-42.454-23.57-1.692-1.031-3.31-2.136-5.0027-3.167-1.03-.663-1.9865.958-.9565 1.547z"/><path d="m111.762 211.173c16.407 7.733 32.962 15.246 49.517 22.465 15.892 6.997 31.932 13.994 48.707 18.635 8.093 2.283 16.775 4.419 25.236 2.946 6.254-1.105 11.993-4.272 16.408-8.765 4.488-4.567 7.725-10.459 9.05-16.794.809-3.683.515-7.513-.147-11.196-1.987-10.68-8.462-20.329-17.879-25.706-1.398-.81-2.87-1.473-4.415-2.136-1.104-.442-1.545 1.326-.515 1.768 10.227 4.272 17.585 13.111 20.381 23.717.956 3.683 1.471 7.587 1.03 11.344-.589 5.45-3.311 10.974-6.696 15.246-3.899 4.788-9.123 8.397-15.083 10.091-7.872 2.136-16.113.516-23.838-1.547-16.261-4.198-31.785-10.753-47.163-17.456-16.039-6.997-31.932-14.142-47.824-21.508-1.987-.957-3.973-1.841-5.96-2.799-.956-.368-1.839 1.253-.809 1.695z"/><path d="m129.052 148.786c18.615 7.734 36.641 16.793 54.962 24.969 9.049 4.051 18.246 7.881 27.591 11.27 9.491 3.461 19.35 6.85 29.43 7.954 8.755 1.032 18.1-.147 25.531-5.303 3.384-2.357 6.254-5.45 8.093-9.133 1.913-3.757 2.796-8.029 2.722-12.227 0-8.692-3.899-16.72-9.638-23.128-6.254-6.997-14.494-11.859-23.029-15.615-7.284-3.241-14.789-5.893-22.22-8.765-7.284-2.799-14.421-5.746-21.484-8.986-2.281-1.032-4.562-2.063-6.843-3.168-1.03-.515-1.986 1.105-.956 1.621 7.651 3.535 15.377 6.923 23.176 10.091 6.548 2.578 13.097 5.082 19.645 7.586 8.755 3.388 17.511 7.292 24.868 13.258 6.475 5.304 11.993 12.375 13.906 20.624 1.913 8.102.221 17.236-5.739 23.276-5.959 6.039-14.715 8.396-23.029 8.249-10.006-.147-19.865-3.388-29.21-6.555-9.344-3.168-18.467-6.85-27.443-10.754-17.953-7.808-35.464-16.647-53.49-24.38-2.134-.958-4.341-1.842-6.475-2.726-.956-.442-1.471 1.4-.368 1.842z"/><path d="m203.658 344.785c2.723-5.598 3.826-12.006 3.091-18.193-.368-3.02-1.104-6.04-2.281-8.913-1.03-2.504-2.355-5.818-5.151-6.702-1.103-.369-1.618 1.399-.515 1.767 1.251.369 1.987 1.621 2.576 2.726.662 1.252 1.25 2.504 1.765 3.83.957 2.651 1.619 5.377 1.84 8.176.515 5.598-.515 11.269-2.943 16.351-.515 1.105 1.103 2.063 1.618.958z"/><path d="m233.677 178.837c.368-11.343 5.298-22.317 13.465-30.125.883-.81-.442-2.136-1.325-1.326-8.535 8.176-13.611 19.593-14.053 31.378.074 1.252 1.913 1.252 1.913.073z"/><path d="m244.272 151.216c4.121 1.179 8.241 2.578 11.993 4.714 3.017 1.695 5.813 4.199 6.401 7.808.589 3.536-1.03 7.145-3.605 9.502-2.722 2.578-6.548 3.756-10.227 4.051-5.077.368-10.08-1.031-14.936-2.431-1.104-.295-1.619 1.473-.515 1.768 8.535 2.504 18.762 4.64 26.34-1.547 2.943-2.431 4.93-6.187 4.856-10.091 0-4.051-2.354-7.292-5.518-9.501-1.913-1.326-4.047-2.357-6.18-3.241-2.649-1.105-5.371-2.063-8.167-2.873-1.104-.295-1.545 1.473-.442 1.841z"/><path d="m211.237 237.321c.368-12.154 5.665-23.865 14.421-32.262.883-.81-.442-2.136-1.325-1.326-9.123 8.692-14.568 20.919-15.009 33.588 0 1.178 1.839 1.178 1.913 0z"/><path d="m222.641 207.711c4.341 1.252 8.755 2.798 12.729 5.008 3.311 1.842 6.401 4.567 6.989 8.544.515 3.757-1.177 7.587-3.899 10.091-3.017 2.799-7.137 4.051-11.11 4.346-5.445.368-10.742-1.105-15.893-2.578-1.103-.295-1.618 1.473-.515 1.768 8.977 2.651 19.866 4.935 27.886-1.473 3.237-2.578 5.371-6.63 5.371-10.828 0-4.346-2.575-7.807-5.96-10.238-2.06-1.473-4.341-2.504-6.622-3.462-2.796-1.178-5.665-2.21-8.535-3.02-1.103-.295-1.618 1.473-.441 1.842z"/><path d="m191.371 296.614c.368-12.153 5.666-23.865 14.421-32.262.883-.81-.441-2.136-1.324-1.325-9.124 8.691-14.568 20.918-15.01 33.587 0 1.178 1.84 1.178 1.913 0z"/><path d="m202.776 266.93c4.341 1.252 8.755 2.799 12.728 5.009 3.311 1.841 6.401 4.567 6.99 8.544.515 3.757-1.177 7.587-3.9 10.091-3.016 2.799-7.136 4.051-11.11 4.346-5.444.368-10.742-1.105-15.892-2.578-1.104-.295-1.619 1.473-.515 1.767 8.976 2.652 19.865 4.935 27.885-1.473 3.238-2.578 5.371-6.629 5.371-10.827 0-4.346-2.575-7.808-5.959-10.238-2.06-1.474-4.341-2.505-6.622-3.462-2.796-1.179-5.666-2.21-8.535-3.02-1.104-.295-1.619 1.547-.441 1.841z"/><path d="m167.753 341.323c.294-9.133 4.268-17.972 10.889-24.307.883-.81-.441-2.136-1.324-1.325-6.99 6.629-11.11 15.983-11.404 25.558 0 1.253 1.839 1.252 1.839.074z"/><path d="m176.141 319.079c3.237.957 6.548 2.062 9.491 3.756 2.428 1.4 4.783 3.388 5.224 6.335.442 2.799-.883 5.745-2.943 7.586-2.281 2.063-5.371 2.947-8.314 3.167-4.047.221-7.946-.81-11.846-1.988-1.103-.295-1.618 1.473-.515 1.768 6.916 1.988 15.23 3.756 21.337-1.179 2.502-1.989 4.121-5.082 4.121-8.323 0-3.315-1.913-6.04-4.562-7.955-3.385-2.431-7.652-3.83-11.625-4.935-1.03-.368-1.472 1.399-.368 1.768z"/></g><path d="m400.032 262.658-6.106-20.992-5.666 20.992-20.307 6.703 20.307 6.85 5.666 22.759 6.401-22.612 19.571-6.997z" fill="#ffd62a"/><path d="m62.098 101.13-5.9596-20.55-5.5918 20.476-19.8655 6.63 19.8655 6.629 5.5918 22.317 6.2539-22.17 19.2033-6.776z" fill="#ffd62a"/><path d="m439.616 208.668-3.679-12.669-3.458 12.669-12.213 3.977 12.213 4.125 3.458 13.774 3.826-13.626 11.846-4.273z" fill="#ffd62a"/><path d="m18.9826 169.262-3.6052-12.374-3.3845 12.374-11.9929 3.977 11.9929 3.978 3.3845 13.479 3.7524-13.406 11.5514-4.051z" fill="#ffd62a"/><path d="m251.336 10.2382-2.944-10.2382-2.795 10.2382-9.86 3.2409 9.86 3.3145 2.795 11.1221 3.091-11.0484 9.565-3.3882z" fill="#ffd62a"/><path d="m59.0814 326.297-2.943-10.238-2.7959 10.238-9.8592 3.314 9.8592 3.315 2.7959 11.048 3.0902-10.974 9.5649-3.389z" fill="#ffd62a"/></svg>