<svg fill="none" height="24" viewBox="0 0 24 24" width="24" xmlns="http://www.w3.org/2000/svg"><path d="m18.364 7.05025c.3905-.39053.3905-1.02369 0-1.41422-.3906-.39052-1.0237-.39052-1.4143 0l-4.9497 4.94977-4.94974-4.94974c-.39052-.39052-1.02369-.39052-1.41421 0-.39052.39053-.39052 1.02369 0 1.41422l4.94975 4.94972-4.94977 4.9497c-.39052.3906-.39052 1.0237 0 1.4143.39053.3905 1.02369.3905 1.41422 0l4.94975-4.9498 4.9498 4.9498c.3905.3905 1.0236.3905 1.4142 0 .3905-.3905.3905-1.0237 0-1.4142l-4.9498-4.9498z" fill="#1c1c21"/></svg>